<svg width="48" height="48" viewBox="0 0 48 48" fill="none" xmlns="http://www.w3.org/2000/svg">
  <defs>
    <filter id="glow" x="-50%" y="-50%" width="200%" height="200%">
      <feGaussianBlur stdDeviation="1.5" result="blur"/>
      <feMerge><feMergeNode in="blur"/><feMergeNode in="SourceGraphic"/></feMerge>
    </filter>
  </defs>
  <rect width="48" height="48" rx="10" fill="#12100e"/>
  <g stroke="#E8D5A3" stroke-width="0.9" stroke-linecap="round">
    <path d="M12 14 H36 M14 11 H34 M16 8 H32"/>
    <path d="M10 16 L14 11 L18 16 M30 16 L34 11 L38 16"/>
  </g>
  <circle cx="17" cy="22" r="7" stroke="#E8D5A3" stroke-width="0.8" stroke-dasharray="2 2" fill="none"/>
  <circle cx="31" cy="22" r="7" stroke="#E8D5A3" stroke-width="0.8" fill="none"/>
  <circle cx="17" cy="22" r="3" fill="#7CFF7C" opacity="0.5" filter="url(#glow)"/>
  <circle cx="31" cy="22" r="3" fill="#7CFF7C" opacity="0.5" filter="url(#glow)"/>
  <circle cx="17" cy="22" r="1.6" fill="#FFF176"/>
  <circle cx="31" cy="22" r="1.6" fill="#FFF176"/>
  <path d="M22 27 L24 30 L26 27" stroke="#E8D5A3" stroke-width="0.9" stroke-linecap="round"/>
  <path d="M14 32 L14 38 M34 32 L34 38" stroke="#E8D5A3" stroke-width="0.8" stroke-dasharray="2 2"/>
  <path d="M16 32 Q24 35 32 32" stroke="#E8D5A3" stroke-width="0.8" fill="none"/>
  <path d="M18 40 Q20 42 22 40 M26 40 Q28 42 30 40" stroke="#E8D5A3" stroke-width="0.7" fill="none"/>
</svg>